<?xml version="1.0" encoding="utf-8"?>
<!-- Generator: Adobe Illustrator 27.4.1, SVG Export Plug-In . SVG Version: 6.00 Build 0)  -->
<svg version="1.1" id="Capa_1" xmlns="http://www.w3.org/2000/svg" xmlns:xlink="http://www.w3.org/1999/xlink" x="0px" y="0px"
	 viewBox="0 0 3000 2000" style="enable-background:new 0 0 3000 2000;" xml:space="preserve">
<style type="text/css">
	.st0{fill:#805374;}
	.st1{fill:#BF1F3E;}
	.st2{fill:#691C32;}
	.st3{fill:#393C3D;}
</style>
<g>
	<path class="st0" d="M54.6,1361.2c-9.6-5.3-21.8-1.9-27.1,7.7c-5.3,9.6-1.9,21.7,7.7,27.1c9.6,5.3,21.7,1.9,27.1-7.7
		C67.7,1378.6,64.2,1366.5,54.6,1361.2"/>
	<path class="st0" d="M552.8,958.3c9.6,5.3,21.7,1.9,27.1-7.7c5.4-9.6,1.9-21.7-7.7-27.1c-9.6-5.3-21.8-1.9-27.1,7.8
		C539.7,940.9,543.2,953,552.8,958.3"/>
	<path class="st0" d="M571.9,996.5l111.9,196.3h45.7l-123.1-216c-5.4-9.5-17.6-12.9-27.1-7.4C569.8,974.9,566.5,987,571.9,996.5"/>
	<path class="st0" d="M780.9,1285.5h-44.3l3.9,6.9c7.8,13.7,7.7,30.7-0.2,44.3c-7.9,13.6-22.6,22-38.3,22H97.9
		c-11,0-19.9,8.9-19.9,19.9c0,11,8.9,19.9,19.9,19.9H702c29.9,0,57.7-16,72.7-41.8C787.3,1335,789.4,1308.8,780.9,1285.5"/>
	<path class="st1" d="M1099.2,1229.5c-5.3-9.6-17.5-13.1-27.1-7.7c-9.6,5.3-13.1,17.5-7.7,27.1c5.3,9.6,17.5,13.1,27.1,7.7
		C1101,1251.2,1104.5,1239.1,1099.2,1229.5"/>
	<path class="st1" d="M503.5,599c9.6-5.3,13.1-17.5,7.8-27.1c-5.3-9.6-17.5-13.1-27.1-7.8c-9.6,5.4-13.1,17.5-7.7,27.1
		C481.8,600.9,493.9,604.3,503.5,599"/>
	<path class="st1" d="M1028.7,1219.3h-84.2l23.3,39.7h60.9c11,0,19.9-8.9,19.9-19.9C1048.6,1228.2,1039.7,1219.3,1028.7,1219.3"/>
	<path class="st1" d="M231,1219.3c-15.8,0-30.4-8.4-38.3-22c-8-13.6-8-30.6-0.2-44.3l292.1-515.1c5.4-9.5,2.1-21.7-7.4-27.1
		c-9.5-5.4-21.7-2.1-27.1,7.4l-292.1,515.1c-14.8,26-14.6,58.1,0.4,83.9c14.9,25.8,42.8,41.8,72.7,41.8h629.3l-23.3-39.7L231,1219.3
		L231,1219.3z"/>
	<path class="st2" d="M1006.5,1398.5c-11,0.2-19.7,9.4-19.5,20.4c0.3,11,9.4,19.7,20.4,19.5c11-0.3,19.7-9.4,19.5-20.4
		C1026.7,1407,1017.5,1398.2,1006.5,1398.5"/>
	<path class="st2" d="M325.7,1118.8c-11,0.2-19.7,9.4-19.5,20.4c0.3,11,9.4,19.7,20.4,19.4c11-0.2,19.7-9.4,19.4-20.4
		C345.9,1127.3,336.7,1118.6,325.7,1118.8"/>
	<path class="st2" d="M997.4,1362.6L654.9,779c-15.1-25.8-43-41.7-72.8-41.6c-29.9,0.1-57.7,16.2-72.6,42.1l-174.7,303.5
		c-5.5,9.5-2.2,21.7,7.3,27.1c9.5,5.5,21.7,2.2,27.1-7.3l174.7-303.5c7.9-13.7,22.6-22.2,38.3-22.2c15.7-0.1,30.4,8.3,38.4,21.9
		l342.5,583.6c5.5,9.5,17.7,12.6,27.2,7.1C999.8,1384.3,1002.9,1372.1,997.4,1362.6"/>
	<path class="st3" d="M1071.9,890.1c0,18.7-18,33-42.2,33c-16.7,0-28.6-3.4-41.5-9.9c-1.3-0.7-1.8-2.2-1.2-3.5l5.5-11.9
		c0.7-1.3,2.2-2,3.5-1.3c10.3,4.5,21,8.1,32.3,8.1c11.3,0,22.2-5.5,22.2-14.5c0-27.9-63.2-12.6-63.2-54.3c0-21,15.6-33.5,37.5-33.5
		c6.4,0,21.5,1.2,39,8.9c1.5,0.7,2,2.4,1.5,3.7l-5.5,12.3c-0.5,1.5-2.2,2-3.5,1.5c-8.4-3.2-21.2-6.9-27.7-6.9
		c-11.1,0-19.8,2.2-20.5,12.8C1008.3,858,1071.9,844.3,1071.9,890.1"/>
	<path class="st3" d="M1123.2,804h9.2c1.4,0,2.5,1.1,2.5,2.5v112.7c0,1.4-1.1,2.5-2.5,2.5h-9.2c-1.4,0-2.5-1.1-2.5-2.5V806.5
		C1120.7,805.1,1121.8,804,1123.2,804z"/>
	<path class="st3" d="M1198.9,831.6c0,29.6,67.8,14.5,67.8,59.5c0,18-17,32.5-41.2,32.5c-16.3,0-27.2-3.2-39.5-9.1
		c-1.2-0.7-1.7-2.2-1.2-3.5c1.2-2.4,2.2-4.5,3.4-6.7c0.5-1.3,2-1.9,3.4-1.3c9.9,4.2,20.7,7.4,32.6,7.4c14.3,0,26.4-7.4,27.2-18.8
		c2.7-33.5-65.3-16.5-67.1-57.7c-0.8-21.4,15.3-31.6,36-31.6c6.4,0,20.7,1.3,37,7.7c1.3,0.5,2,2,1.5,3.4c-1,2.7-1.7,4.9-2.5,7.2
		c-0.5,1.3-2,2-3.4,1.5c-8.4-2.7-21-6.2-32.1-6.2c-11.1,0-21.4,4.2-21.9,15.6L1198.9,831.6L1198.9,831.6z"/>
	<path class="st3" d="M1339.7,816.1h-32.6c-1.3,0-2.5-1.2-2.5-2.5v-7.1c0-1.3,1.2-2.5,2.5-2.5h80.1c1.3,0,2.5,1.2,2.5,2.5v7.1
		c0,1.3-1.2,2.5-2.5,2.5h-33v103.1c0,1.3-1.2,2.5-2.5,2.5h-9.4c-1.3,0-2.5-1.2-2.5-2.5L1339.7,816.1L1339.7,816.1z"/>
	<path class="st3" d="M1449.1,869.7v39.9h59.4c1.3,0,2.5,1.2,2.5,2.5v7.1c0,1.3-1.2,2.5-2.5,2.5h-71.1c-1.3,0-2.5-1.2-2.5-2.5V806.5
		c0-1.3,1.2-2.5,2.5-2.5h71.1c1.3,0,2.5,1.2,2.5,2.5v7.1c0,1.3-1.2,2.5-2.5,2.5h-59.4v41.5h45.9c1.3,0,2.5,1.2,2.5,2.5v7.1
		c0,1.3-1.2,2.5-2.5,2.5L1449.1,869.7L1449.1,869.7z"/>
	<path class="st3" d="M1634.6,920.9c-0.5,1.3-1.9,2.2-3.2,2.2c-1.5,0-2.7-0.8-3.4-2.2l-34.6-82.8l-25.9,81.2
		c-0.3,1.3-1.7,2.4-3.2,2.4h-10.4c-1.2,0-2.2-1.2-1.7-2.4l37-114.5c0.3-1,1.5-1.8,2.7-1.8s2.4,0.7,2.9,1.8l36.7,89.1l36.8-89.1
		c0.3-1.2,1.5-1.8,2.5-1.8c1.2,0,2.2,0.7,2.7,1.8l37.2,114.5c0.5,1.2-0.5,2.4-1.7,2.4h-10.4c-1.5,0-2.9-1-3.4-2.4l-25.9-81.4
		L1634.6,920.9L1634.6,920.9z"/>
	<path class="st3" d="M1824.7,889.3h-46.8l-12.1,30.1c-0.7,1.5-2,2.4-3.5,2.4h-10.6c-1.2,0-2-1.2-1.5-2.4l47.8-114.2
		c0.5-1.3,1.8-2.2,3.4-2.2c1.3,0,2.5,0.8,3,2.2l48.6,114.2c0.5,1.2-0.3,2.4-1.5,2.4h-10.9c-1.5,0-2.9-0.8-3.5-2.4L1824.7,889.3
		L1824.7,889.3z M1782.6,877.5h37.2l-18.7-45.9L1782.6,877.5z"/>
	<path class="st3" d="M1978.1,921.7c-1.5,0-2.7-1.2-2.7-2.7V804.8c0-1.2,1-2.2,2-2.2c1.3,0,2.7,0.5,3.7,1.5l69.8,71v-68.5
		c0-1.5,1.2-2.7,2.7-2.7h15.3c1.5,0,2.7,1.2,2.7,2.7V921c0,1.2-1,2.2-2.4,2.2c-1.3,0-2.7-0.5-3.7-1.7l-69.5-72.3V919
		c0,1.5-1.2,2.7-2.7,2.7L1978.1,921.7L1978.1,921.7z"/>
	<path class="st3" d="M2190.7,889.3h-46.8l-12.1,30.1c-0.7,1.5-2,2.4-3.5,2.4h-10.6c-1.2,0-2-1.2-1.5-2.4l47.8-114.2
		c0.5-1.3,1.8-2.2,3.4-2.2c1.3,0,2.5,0.8,3,2.2l48.6,114.2c0.5,1.2-0.3,2.4-1.5,2.4h-10.9c-1.5,0-2.9-0.8-3.5-2.4L2190.7,889.3
		L2190.7,889.3z M2148.6,877.5h37.2l-18.7-45.9L2148.6,877.5z"/>
	<path class="st3" d="M2345.1,826.7c-1,0.8-2.7,0.8-3.7,0c-7.7-6.4-19.8-12.4-31.6-12.4c-38.2,0-43.6,36.2-43.6,48.1
		c0,11.9,5.4,47.9,43.6,47.9c12.6,0,23.9-5.7,32-11.9c1.2-0.8,2.7-0.7,3.5,0.3c1.7,2.2,3.4,4,5.2,6.2c0.8,1.2,0.7,2.7-0.3,3.7
		c-10.3,8.9-22.7,14.6-40.4,14.6c-44.9,0-58.2-35.7-58.2-60.9s13.3-60.4,58.2-60.4c18.3,0,30.6,6.2,40.5,15.8c1,1,1,2.7,0,3.7
		L2345.1,826.7L2345.1,826.7z"/>
	<path class="st3" d="M2400.7,804h9.2c1.4,0,2.5,1.1,2.5,2.5v112.7c0,1.4-1.1,2.5-2.5,2.5h-9.2c-1.4,0-2.5-1.1-2.5-2.5V806.5
		C2398.1,805.1,2399.3,804,2400.7,804z"/>
	<path class="st3" d="M2578.2,862.7c0,25.2-13.3,60.6-58.2,60.6c-44.9,0-58.2-35.3-58.2-60.6c0-25.2,13.3-60.4,58.2-60.4
		S2578.2,838.1,2578.2,862.7 M2563.4,862.7c0-11.9-5.4-47.3-43.4-47.3s-43.6,35.3-43.6,47.3s5.4,47.6,43.6,47.6
		S2563.4,874.6,2563.4,862.7"/>
	<path class="st3" d="M2630.4,921.7c-1.3,0-2.5-1.2-2.5-2.5V805.5c0-1.3,1.2-2.5,2.5-2.5h0.2c1.5,0,3.2,0.7,4.2,1.8l73.5,84.9v-83.3
		c0-1.3,1.2-2.5,2.5-2.5h9.2c1.3,0,2.5,1.2,2.5,2.5v113.9c0,1.3-1.2,2.4-2.5,2.4c-1.5,0-3-0.7-4-1.8l-73.7-85.3v83.6
		c0,1.3-1.2,2.5-2.5,2.5H2630.4L2630.4,921.7z"/>
	<path class="st3" d="M2841.6,889.3h-46.8l-12.1,30.1c-0.7,1.5-2,2.4-3.5,2.4h-10.6c-1.2,0-2-1.2-1.5-2.4l47.8-114.2
		c0.5-1.3,1.8-2.2,3.4-2.2c1.3,0,2.5,0.8,3,2.2l48.6,114.2c0.5,1.2-0.3,2.4-1.5,2.4h-10.9c-1.5,0-2.9-0.8-3.5-2.4L2841.6,889.3
		L2841.6,889.3z M2799.6,877.5h37.2l-18.7-45.9L2799.6,877.5z"/>
	<path class="st3" d="M2928.7,909.6h43.7c1.3,0,2.5,1.2,2.5,2.5v7.1c0,1.3-1.2,2.5-2.5,2.5H2917c-1.3,0-2.5-1.2-2.5-2.5V806.5
		c0-1.3,1.2-2.5,2.5-2.5h9.2c1.3,0,2.5,1.2,2.5,2.5V909.6L2928.7,909.6z"/>
	<path class="st3" d="M1091.2,1116.8c0.5,1.2-0.3,2.5-1.7,2.5h-20.7c-1.7,0-3.4-1-3.9-2.7l-10.3-24.9h-36.3l-10.1,24.9
		c-0.7,1.7-2.2,2.7-3.9,2.7h-20.9c-1.3,0-2.2-1.3-1.7-2.5l51.6-114.9c0.5-1,1.7-1.9,2.9-1.9c1.3,0,2.5,0.8,3,1.9L1091.2,1116.8
		L1091.2,1116.8z M1026,1072.9h21.2l-10.6-26.4L1026,1072.9z"/>
	<path class="st3" d="M1149.7,1119.4c-1.5,0-2.9-1.3-2.9-2.9v-113.9c0-1.3,1-2.4,2.2-2.4c1.5,0,2.9,0.5,4,1.7l66.8,66.4v-63.9
		c0-1.5,1.3-2.9,2.9-2.9h18.2c1.5,0,2.9,1.3,2.9,2.9v113.9c0,1.2-0.8,2-2,2c-1.3,0-2.5-0.5-3.5-1.3l-67.5-68.1v65.6
		c0,1.5-1.3,2.9-2.9,2.9L1149.7,1119.4L1149.7,1119.4z"/>
	<path class="st3" d="M1331.6,1023.5h-28.9c-1.5,0-2.9-1.3-2.9-2.9v-16.1c0-1.5,1.3-2.9,2.9-2.9h82.2c1.5,0,2.9,1.3,2.9,2.9v16.1
		c0,1.5-1.3,2.9-2.9,2.9h-29.3v93c0,1.5-1.3,2.9-2.9,2.9h-18.3c-1.5,0-2.9-1.3-2.9-2.9L1331.6,1023.5L1331.6,1023.5z"/>
	<path class="st3" d="M1446.8,1001.6h18.2c1.6,0,2.9,1.3,2.9,2.9v112c0,1.6-1.3,2.9-2.9,2.9h-18.2c-1.6,0-2.9-1.3-2.9-2.9v-112
		C1443.9,1002.9,1445.2,1001.6,1446.8,1001.6z"/>
	<path class="st3" d="M1619.4,1035.1c-1,1.2-2.9,1-3.9-0.2c-6.9-6.9-18.5-12.8-28.4-12.8c-30.1,0-34.3,28.6-34.3,38.2
		s4.4,38,34.5,38c10.3,0,21.5-5.4,29.4-11.8c1.2-1,3-0.8,4,0.3l9.8,11.9c1,1.2,1,3-0.2,4.2c-11.8,10.9-25.4,17.8-43.2,17.8
		c-44.9,0-58.5-35.3-58.5-60.6c0-25.2,13.6-60.4,58.5-60.4c19.2,0,32.6,7.9,44.1,20c1,1,1,2.9-0.2,4L1619.4,1035.1L1619.4,1035.1z"
		/>
	<path class="st3" d="M1798.9,1060.3c0,25.2-13.6,60.9-58.2,60.9c-44.6,0-58.5-35.7-58.5-60.9s13.6-60.7,58.5-60.7
		C1785.6,999.6,1798.9,1035.8,1798.9,1060.3 M1774.7,1060.3c0-9.6-4.4-38.5-34-38.5s-34.3,28.9-34.3,38.5s4.2,38.9,34.3,38.9
		C1770.8,1099.2,1774.7,1069.9,1774.7,1060.3"/>
	<path class="st3" d="M1883.6,1116.5c0,1.5-1.3,2.9-2.9,2.9h-17.8c-1.5,0-2.9-1.3-2.9-2.9v-112c0-1.5,1.3-2.9,2.9-2.9h41.7
		c32.3,0,42,22.5,42,38.2c0,17-9.9,29.3-23.2,35l19.8,42c0.5,1.2-0.3,2.5-1.7,2.5h-20.2c-1.7,0-3.4-1-4-2.5l-18-38.3h-15.8V1116.5
		L1883.6,1116.5z M1922.8,1039.8c0-5.7-3-16.5-17.3-16.5h-21.9v33.1h22.5C1919.8,1056.1,1922.8,1045,1922.8,1039.8"/>
	<path class="st3" d="M2031.3,1116.5c0,1.5-1.3,2.9-2.9,2.9h-17.8c-1.5,0-2.9-1.3-2.9-2.9v-112c0-1.5,1.3-2.9,2.9-2.9h41.7
		c32.3,0,42,22.5,42,38.2c0,17-9.9,29.3-23.2,35l19.8,42c0.5,1.2-0.3,2.5-1.7,2.5h-20.2c-1.7,0-3.4-1-4-2.5l-18-38.3h-15.8V1116.5
		L2031.3,1116.5z M2070.4,1039.8c0-5.7-3-16.5-17.3-16.5h-21.9v33.1h22.5C2067.4,1056.1,2070.4,1045,2070.4,1039.8"/>
	<path class="st3" d="M2222.6,1073.6v-69.1c0-1.5,1.3-2.9,2.9-2.9h18.3c1.5,0,2.9,1.3,2.9,2.9v69.1c0,19.8-12.1,46.9-46.8,46.9
		c-34.6,0-46.8-27.1-46.8-46.9v-69.1c0-1.5,1.3-2.9,2.9-2.9h18.2c1.5,0,2.9,1.3,2.9,2.9v69.1c0,6.9,4.7,25.2,22.9,25.2
		C2218,1098.8,2222.6,1080.5,2222.6,1073.6"/>
	<path class="st3" d="M2336.7,1116.5c0,1.5-1.3,2.9-2.9,2.9h-18.2c-1.5,0-2.9-1.3-2.9-2.9v-112c0-1.5,1.3-2.9,2.9-2.9h42
		c32.3,0,42,22.5,42,38.2c0,23.2-20.3,38.7-39.9,38.7h-23.2L2336.7,1116.5L2336.7,1116.5z M2375.9,1039.8c0-5.7-3-16.5-17.3-16.5
		h-21.9v33.1h22.5C2372.9,1056.1,2375.9,1045,2375.9,1039.8"/>
	<path class="st3" d="M2544,1035.1c-1,1.2-2.9,1-3.9-0.2c-6.9-6.9-18.5-12.8-28.4-12.8c-30.1,0-34.3,28.6-34.3,38.2s4.4,38,34.5,38
		c10.3,0,21.5-5.4,29.4-11.8c1.2-1,3-0.8,4,0.3l9.8,11.9c1,1.2,1,3-0.2,4.2c-11.8,10.9-25.4,17.8-43.2,17.8
		c-44.9,0-58.5-35.3-58.5-60.6c0-25.2,13.6-60.4,58.5-60.4c19.2,0,32.6,7.9,44.1,20c1,1,1,2.9-0.2,4L2544,1035.1z"/>
	<path class="st3" d="M2618.3,1001.6h18.2c1.6,0,2.9,1.3,2.9,2.9v112c0,1.6-1.3,2.9-2.9,2.9h-18.2c-1.6,0-2.9-1.3-2.9-2.9v-112
		C2615.5,1002.9,2616.7,1001.6,2618.3,1001.6z"/>
	<path class="st3" d="M2816.8,1060.3c0,25.2-13.6,60.9-58.2,60.9s-58.5-35.7-58.5-60.9s13.6-60.7,58.5-60.7
		S2816.8,1035.8,2816.8,1060.3 M2792.6,1060.3c0-9.6-4.4-38.5-34-38.5c-29.6,0-34.3,28.9-34.3,38.5s4.2,38.9,34.3,38.9
		C2788.8,1099.2,2792.6,1069.9,2792.6,1060.3 M2764.4,955.2c1.2-0.8,3-0.7,3.9,0.7l7.6,10.6c1,1.3,0.5,3-0.7,3.9l-24.6,15.1
		c-1.3,0.8-3,0.5-4-0.8l-5.4-7.7c-1-1.3-0.7-3.2,0.5-4L2764.4,955.2L2764.4,955.2z"/>
	<path class="st3" d="M2880.8,1119.4c-1.5,0-2.9-1.3-2.9-2.9v-113.9c0-1.3,1-2.4,2.2-2.4c1.5,0,2.9,0.5,4,1.7l66.8,66.4v-63.9
		c0-1.5,1.3-2.9,2.9-2.9h18.2c1.5,0,2.9,1.3,2.9,2.9v113.9c0,1.2-0.8,2-2,2c-1.3,0-2.5-0.5-3.5-1.3l-67.5-68.1v65.6
		c0,1.5-1.3,2.9-2.9,2.9L2880.8,1119.4L2880.8,1119.4z"/>
</g>
</svg>
